<?xml version="1.0" encoding="UTF-8"?>
<svg width="14px" height="16px" viewBox="0 0 14 16" version="1.1" xmlns="http://www.w3.org/2000/svg" xmlns:xlink="http://www.w3.org/1999/xlink">
    <!-- Generator: sketchtool 50.2 (55047) - http://www.bohemiancoding.com/sketch -->
    <title>CC5FFE9E-27FA-49F9-A566-29B5BC80E9E5</title>
    <desc>Created with sketchtool.</desc>
    <defs></defs>
    <g id="New-screens" stroke="none" stroke-width="1" fill="none" fill-rule="evenodd">
        <g id="My-Trips:-main2" transform="translate(-1162.000000, -533.000000)" fill="#395BD3" fill-rule="nonzero">
            <g id="MainStats_tables" transform="translate(25.000000, 139.000000)">
                <g id="TableRows" transform="translate(11.000000, 384.000000)">
                    <g id="row-1">
                        <g id="controls" transform="translate(1117.000000, 2.000000)">
                            <g id="btn-document">
                                <g id="icon" transform="translate(9.000000, 8.000000)">
                                    <path d="M10.3157895,0 L1.47368421,0 C0.663157895,0 0,0.654545455 0,1.45454545 L0,11.6363636 L1.47368421,11.6363636 L1.47368421,1.45454545 L10.3157895,1.45454545 L10.3157895,0 Z M12.5263158,2.90909091 L4.42105263,2.90909091 C3.61052632,2.90909091 2.94736842,3.56363636 2.94736842,4.36363636 L2.94736842,14.5454545 C2.94736842,15.3454545 3.61052632,16 4.42105263,16 L12.5263158,16 C13.3368421,16 14,15.3454545 14,14.5454545 L14,4.36363636 C14,3.56363636 13.3368421,2.90909091 12.5263158,2.90909091 Z M12.5263158,14.5454545 L4.42105263,14.5454545 L4.42105263,4.36363636 L12.5263158,4.36363636 L12.5263158,14.5454545 Z" id="icon-document-table-copy"></path>
                                </g>
                            </g>
                        </g>
                    </g>
                </g>
            </g>
        </g>
    </g>
</svg>