<?xml version="1.0" encoding="UTF-8"?>
<svg width="16px" height="14px" viewBox="0 0 16 14" version="1.1" xmlns="http://www.w3.org/2000/svg" xmlns:xlink="http://www.w3.org/1999/xlink">
    <!-- Generator: sketchtool 50.2 (55047) - http://www.bohemiancoding.com/sketch -->
    <title>6997BC2E-A471-43D2-80FA-9FFACD8EDE89</title>
    <desc>Created with sketchtool.</desc>
    <defs></defs>
    <g id="New-screens" stroke="none" stroke-width="1" fill="none" fill-rule="evenodd">
        <g id="My-Trips:-main2" transform="translate(-1241.000000, -534.000000)" fill="#3A5BD3" fill-rule="nonzero">
            <g id="MainStats_tables" transform="translate(25.000000, 139.000000)">
                <g id="TableRows" transform="translate(11.000000, 384.000000)">
                    <g id="row-1">
                        <g id="controls" transform="translate(1117.000000, 2.000000)">
                            <g id="btn-mail" transform="translate(80.000000, 0.000000)">
                                <g id="icon" transform="translate(8.000000, 8.000000)">
                                    <g id="icon-mail-table-copy" transform="translate(0.000000, 1.000000)">
                                        <path d="M13.8829062,0.00203125 L2.11709375,0.00203125 C0.94975,0.00203125 6.25e-05,0.95175 6.25e-05,2.1190625 L6.25e-05,10.9434063 C6.25e-05,12.11075 0.94975,13.0604375 2.11709375,13.0604375 L13.8829062,13.0604375 C15.05025,13.0604375 15.9999375,12.1107188 15.9999375,10.9434063 L15.9999375,2.1190625 C15.9999375,0.95171875 15.05025,0.00203125 13.8829062,0.00203125 Z M14.7073125,10.9434062 C14.7073125,11.3979687 14.3374687,11.7678125 13.8829062,11.7678125 L2.11709375,11.7678125 C1.66253125,11.7678125 1.2926875,11.3979687 1.2926875,10.9434063 L1.2926875,2.1190625 C1.2926875,1.6645 1.66253125,1.29465625 2.11709375,1.29465625 L13.8829062,1.29465625 C14.3374687,1.29465625 14.7073125,1.6645 14.7073125,2.1190625 L14.7073125,10.9434062 Z" id="Shape"></path>
                                        <path d="M15.8830938,1.7484375 C15.6784375,1.45603125 15.2755,1.38490625 14.9829688,1.58959375 L7.99996875,6.477625 L1.017,1.5895625 C0.72459375,1.38484375 0.32159375,1.456 0.11690625,1.74840625 C-0.08778125,2.0408125 -0.01665625,2.4438125 0.27575,2.6485 L7.629375,7.7960625 C7.74065625,7.87396875 7.8703125,7.912875 8,7.912875 C8.12965625,7.912875 8.25934375,7.8739375 8.370625,7.7960625 L15.72425,2.64853125 C16.0166563,2.44384375 16.0877813,2.04084375 15.8830938,1.7484375 Z" id="Shape"></path>
                                    </g>
                                </g>
                            </g>
                        </g>
                    </g>
                </g>
            </g>
        </g>
    </g>
</svg>